<?xml version="1.0" encoding="UTF-8" standalone="no"?>
<!DOCTYPE svg PUBLIC "-//W3C//DTD SVG 1.1//EN"
 "http://www.w3.org/Graphics/SVG/1.1/DTD/svg11.dtd">
<!-- Generated by graphviz version 2.38.0 (20140413.2041)
 -->
<!-- Title: %3 Pages: 1 -->
<svg width="210pt" height="332pt"
 viewBox="0.00 0.00 209.90 332.00" xmlns="http://www.w3.org/2000/svg" xmlns:xlink="http://www.w3.org/1999/xlink">
<g id="graph0" class="graph" transform="scale(1 1) rotate(0) translate(4 328)">
<title>%3</title>
<polygon fill="white" stroke="none" points="-4,4 -4,-328 205.897,-328 205.897,4 -4,4"/>
<!-- 1 -->
<g id="node1" class="node"><title>1</title>
<ellipse fill="none" stroke="black" cx="84.8973" cy="-306" rx="27" ry="18"/>
<text text-anchor="middle" x="84.8973" y="-302.3" font-family="Times,serif" font-size="14.00">uno</text>
</g>
<!-- 2 -->
<g id="node2" class="node"><title>2</title>
<ellipse fill="none" stroke="black" cx="84.8973" cy="-234" rx="27" ry="18"/>
<text text-anchor="middle" x="84.8973" y="-230.3" font-family="Times,serif" font-size="14.00">dos</text>
</g>
<!-- 1&#45;&gt;2 -->
<g id="edge1" class="edge"><title>1&#45;&gt;2</title>
<path fill="none" stroke="black" d="M84.8973,-287.697C84.8973,-279.983 84.8973,-270.712 84.8973,-262.112"/>
<polygon fill="black" stroke="black" points="88.3974,-262.104 84.8973,-252.104 81.3974,-262.104 88.3974,-262.104"/>
</g>
<!-- 5 -->
<g id="node5" class="node"><title>5</title>
<ellipse fill="none" stroke="black" cx="29.8973" cy="-162" rx="29.795" ry="18"/>
<text text-anchor="middle" x="29.8973" y="-158.3" font-family="Times,serif" font-size="14.00">cinco</text>
</g>
<!-- 1&#45;&gt;5 -->
<g id="edge3" class="edge"><title>1&#45;&gt;5</title>
<path fill="none" stroke="black" d="M72.1494,-289.702C64.3388,-279.587 54.7496,-265.708 48.8973,-252 40.4326,-232.172 35.5935,-208.196 32.9199,-190.127"/>
<polygon fill="black" stroke="black" points="36.3579,-189.431 31.5534,-179.988 29.4206,-190.366 36.3579,-189.431"/>
</g>
<!-- 2&#45;&gt;5 -->
<g id="edge4" class="edge"><title>2&#45;&gt;5</title>
<path fill="none" stroke="black" d="M72.9632,-217.811C65.7835,-208.673 56.4932,-196.849 48.3803,-186.524"/>
<polygon fill="black" stroke="black" points="51.1194,-184.345 42.1891,-178.644 45.6152,-188.67 51.1194,-184.345"/>
</g>
<!-- 7 -->
<g id="node7" class="node"><title>7</title>
<ellipse fill="none" stroke="black" cx="104.897" cy="-162" rx="27" ry="18"/>
<text text-anchor="middle" x="104.897" y="-158.3" font-family="Times,serif" font-size="14.00">siete</text>
</g>
<!-- 2&#45;&gt;7 -->
<g id="edge9" class="edge"><title>2&#45;&gt;7</title>
<path fill="none" stroke="black" d="M83.9254,-215.697C85.4453,-207.372 88.146,-197.234 91.2278,-188.082"/>
<polygon fill="black" stroke="black" points="94.5221,-189.265 94.6838,-178.671 87.9511,-186.852 94.5221,-189.265"/>
</g>
<!-- 3 -->
<g id="node3" class="node"><title>3</title>
<ellipse fill="none" stroke="black" cx="104.897" cy="-90" rx="27" ry="18"/>
<text text-anchor="middle" x="104.897" y="-86.3" font-family="Times,serif" font-size="14.00">tres</text>
</g>
<!-- 4 -->
<g id="node4" class="node"><title>4</title>
<ellipse fill="none" stroke="black" cx="104.897" cy="-18" rx="32.4942" ry="18"/>
<text text-anchor="middle" x="104.897" y="-14.3" font-family="Times,serif" font-size="14.00">cuatro</text>
</g>
<!-- 3&#45;&gt;4 -->
<g id="edge2" class="edge"><title>3&#45;&gt;4</title>
<path fill="none" stroke="black" d="M104.897,-71.6966C104.897,-63.9827 104.897,-54.7125 104.897,-46.1124"/>
<polygon fill="black" stroke="black" points="108.397,-46.1043 104.897,-36.1043 101.397,-46.1044 108.397,-46.1043"/>
</g>
<!-- 6 -->
<g id="node6" class="node"><title>6</title>
<ellipse fill="none" stroke="black" cx="156.897" cy="-306" rx="27" ry="18"/>
<text text-anchor="middle" x="156.897" y="-302.3" font-family="Times,serif" font-size="14.00">seis</text>
</g>
<!-- 6&#45;&gt;6 -->
<g id="edge5" class="edge"><title>6&#45;&gt;6</title>
<path fill="none" stroke="black" d="M176.792,-318.432C189.585,-321.675 201.897,-317.531 201.897,-306 201.897,-297.622 195.398,-293.143 186.937,-292.564"/>
<polygon fill="black" stroke="black" points="186.399,-289.1 176.792,-293.568 187.088,-296.066 186.399,-289.1"/>
</g>
<!-- 7&#45;&gt;1 -->
<g id="edge6" class="edge"><title>7&#45;&gt;1</title>
<path fill="none" stroke="black" d="M112.411,-179.357C119.663,-197.425 128.511,-227.241 120.897,-252 117.612,-262.685 111.357,-273.149 104.972,-281.919"/>
<polygon fill="black" stroke="black" points="102.013,-280.023 98.6477,-290.069 107.543,-284.314 102.013,-280.023"/>
</g>
<!-- 7&#45;&gt;2 -->
<g id="edge7" class="edge"><title>7&#45;&gt;2</title>
<path fill="none" stroke="black" d="M105.871,-180.292C104.378,-188.477 101.742,-198.415 98.7249,-207.446"/>
<polygon fill="black" stroke="black" points="95.3366,-206.522 95.1965,-217.116 101.912,-208.922 95.3366,-206.522"/>
</g>
<!-- 7&#45;&gt;3 -->
<g id="edge8" class="edge"><title>7&#45;&gt;3</title>
<path fill="none" stroke="black" d="M104.897,-143.697C104.897,-135.983 104.897,-126.712 104.897,-118.112"/>
<polygon fill="black" stroke="black" points="108.397,-118.104 104.897,-108.104 101.397,-118.104 108.397,-118.104"/>
</g>
</g>
</svg>
